<svg width="143" height="32" viewBox="0 0 143 32" fill="none" xmlns="http://www.w3.org/2000/svg">
<path d="M50.5127 24.3145C51.7106 24.3145 52.785 24.0936 53.7358 23.6519C54.6942 23.2026 55.4803 22.5775 56.0942 21.7764C56.7157 20.9753 57.105 20.0431 57.2622 18.98L57.2847 18.8901H54.7803L54.7466 18.9688C54.5669 19.6276 54.2786 20.1891 53.8818 20.6533C53.485 21.1175 53.0021 21.4731 52.4331 21.7202C51.8716 21.9598 51.2314 22.0796 50.5127 22.0796C49.5244 22.0796 48.6634 21.8288 47.9297 21.3271C47.2035 20.818 46.6382 20.0993 46.2339 19.1709C45.8371 18.2425 45.6387 17.1494 45.6387 15.8916V15.8804C45.6387 14.6226 45.8371 13.5332 46.2339 12.6123C46.6382 11.6914 47.2035 10.9801 47.9297 10.4785C48.6559 9.9694 49.5132 9.71484 50.5015 9.71484C51.2277 9.71484 51.8753 9.84212 52.4443 10.0967C53.0133 10.3512 53.4925 10.7106 53.8818 11.1748C54.2712 11.639 54.5519 12.193 54.7241 12.8369L54.769 13.0054H57.2734L57.2622 12.9155C57.105 11.8449 56.7157 10.9015 56.0942 10.0854C55.4803 9.26937 54.6942 8.63298 53.7358 8.17627C52.7775 7.71208 51.6994 7.47998 50.5015 7.47998C48.9816 7.47998 47.6639 7.82064 46.5483 8.50195C45.4328 9.18327 44.5718 10.1528 43.9653 11.4106C43.3589 12.6685 43.0557 14.1584 43.0557 15.8804V15.9028C43.0557 17.6248 43.3589 19.1147 43.9653 20.3726C44.5718 21.6304 45.4328 22.6037 46.5483 23.2925C47.6714 23.9738 48.9928 24.3145 50.5127 24.3145ZM59.3318 24H61.7688V12.062H59.3318V24ZM60.5559 10.1304C60.9602 10.1304 61.3008 9.98812 61.5779 9.70361C61.8624 9.41911 62.0046 9.07845 62.0046 8.68164C62.0046 8.28483 61.8624 7.94792 61.5779 7.6709C61.3008 7.38639 60.9602 7.24414 60.5559 7.24414C60.1516 7.24414 59.8072 7.38639 59.5227 7.6709C59.2382 7.94792 59.0959 8.28483 59.0959 8.68164C59.0959 9.07845 59.2382 9.41911 59.5227 9.70361C59.8072 9.98812 60.1516 10.1304 60.5559 10.1304ZM67.5556 24H70.1723L74.4623 12.062H71.913L68.9257 21.5854H68.8246L65.8373 12.062H63.2543L67.5556 24ZM75.9367 24H78.3737V12.062H75.9367V24ZM77.1608 10.1304C77.5651 10.1304 77.9058 9.98812 78.1828 9.70361C78.4673 9.41911 78.6095 9.07845 78.6095 8.68164C78.6095 8.28483 78.4673 7.94792 78.1828 7.6709C77.9058 7.38639 77.5651 7.24414 77.1608 7.24414C76.7565 7.24414 76.4121 7.38639 76.1276 7.6709C75.8431 7.94792 75.7008 8.28483 75.7008 8.68164C75.7008 9.07845 75.8431 9.41911 76.1276 9.70361C76.4121 9.98812 76.7565 10.1304 77.1608 10.1304ZM80.9823 24H83.4193V7.53613H80.9823V24ZM87.7911 24H93.3053C94.4583 24 95.4503 23.8128 96.2813 23.4385C97.1199 23.0566 97.7675 22.5213 98.2242 21.8325C98.6809 21.1437 98.9093 20.3276 98.9093 19.3843V19.3618C98.9093 18.658 98.7446 18.0254 98.4151 17.4639C98.0857 16.8949 97.6327 16.4382 97.0563 16.0938C96.4798 15.7419 95.8209 15.5397 95.0797 15.4873V15.375C95.6637 15.2926 96.184 15.0868 96.6407 14.7573C97.1049 14.4204 97.4718 14.0049 97.7413 13.5107C98.0108 13.0091 98.1456 12.4626 98.1456 11.8711V11.8486C98.1456 11.0176 97.9435 10.2988 97.5392 9.69238C97.1424 9.08594 96.5696 8.618 95.8209 8.28857C95.0797 7.95915 94.1925 7.79443 93.1593 7.79443H87.7911V10.3101H92.2833C93.0844 10.3101 93.7058 10.4897 94.1476 10.8491C94.5893 11.2085 94.8102 11.7139 94.8102 12.3652V12.3877C94.8102 13.0765 94.5631 13.6118 94.0689 13.9937C93.5748 14.368 92.8561 14.5552 91.9127 14.5552H87.7911V16.835H92.3058C92.9946 16.835 93.5711 16.9211 94.0353 17.0933C94.4994 17.2655 94.8476 17.5238 95.0797 17.8682C95.3193 18.2126 95.4391 18.6356 95.4391 19.1372V19.1597C95.4391 19.9084 95.1808 20.4811 94.6642 20.8779C94.155 21.2747 93.4101 21.4731 92.4293 21.4731H87.7911V24ZM86.0953 24H89.4869V7.79443H86.0953V24ZM104.078 24.1909C104.61 24.1909 105.104 24.116 105.561 23.9663C106.018 23.8091 106.422 23.5845 106.774 23.2925C107.126 23.0005 107.41 22.6561 107.627 22.2593H107.74V24H111.008V15.6895C111.008 14.8509 110.798 14.1284 110.379 13.522C109.967 12.908 109.379 12.4364 108.616 12.1069C107.852 11.77 106.942 11.6016 105.887 11.6016C104.831 11.6016 103.917 11.7625 103.146 12.0845C102.375 12.3989 101.769 12.8369 101.327 13.3984C100.893 13.96 100.638 14.6113 100.563 15.3525L100.552 15.4761H103.562L103.584 15.3862C103.682 15.0044 103.91 14.6974 104.269 14.4653C104.636 14.2332 105.123 14.1172 105.729 14.1172C106.381 14.1172 106.879 14.2669 107.223 14.5664C107.567 14.8659 107.74 15.2852 107.74 15.8242V19.5752C107.74 19.9945 107.627 20.3726 107.403 20.7095C107.178 21.0464 106.871 21.3122 106.482 21.5068C106.092 21.7015 105.651 21.7988 105.157 21.7988C104.588 21.7988 104.131 21.6715 103.786 21.417C103.442 21.1549 103.27 20.7993 103.27 20.3501V20.3389C103.27 19.8971 103.435 19.549 103.764 19.2944C104.101 19.0324 104.599 18.8826 105.258 18.8452L109.424 18.5757V16.5542L104.763 16.835C103.76 16.8949 102.907 17.0783 102.203 17.3853C101.499 17.6847 100.96 18.0965 100.586 18.6206C100.219 19.1447 100.035 19.7736 100.035 20.5073V20.5298C100.035 21.2485 100.208 21.8849 100.552 22.439C100.896 22.993 101.372 23.4235 101.978 23.7305C102.585 24.0374 103.285 24.1909 104.078 24.1909ZM118.075 24.2471C119.115 24.2471 120.036 24.0861 120.837 23.7642C121.639 23.4347 122.264 22.9743 122.713 22.3828C123.17 21.7913 123.398 21.0988 123.398 20.3052V20.2827C123.398 19.3918 123.113 18.6842 122.544 18.1602C121.983 17.6286 121.077 17.2318 119.827 16.9697L117.772 16.5317C117.367 16.4419 117.042 16.3371 116.794 16.2173C116.547 16.09 116.371 15.9478 116.267 15.7905C116.162 15.6258 116.109 15.4424 116.109 15.2402V15.2178C116.109 14.9557 116.188 14.7274 116.345 14.5327C116.502 14.3381 116.72 14.1883 116.997 14.0835C117.281 13.9712 117.611 13.915 117.985 13.915C118.599 13.915 119.082 14.0573 119.434 14.3418C119.786 14.6188 119.991 14.9557 120.051 15.3525L120.063 15.4312H123.095V15.3413C123.065 14.6525 122.848 14.0273 122.443 13.4658C122.039 12.8968 121.463 12.4438 120.714 12.1069C119.965 11.77 119.056 11.6016 117.985 11.6016C116.967 11.6016 116.076 11.7588 115.312 12.0732C114.548 12.3877 113.957 12.8294 113.538 13.3984C113.118 13.9674 112.909 14.6375 112.909 15.4087V15.4199C112.909 16.0189 113.04 16.5505 113.302 17.0146C113.564 17.4788 113.953 17.8682 114.47 18.1826C114.994 18.4896 115.645 18.7292 116.424 18.9014L118.479 19.3281C119.085 19.4629 119.509 19.6313 119.748 19.8335C119.995 20.0356 120.119 20.3014 120.119 20.6309V20.6421C120.119 20.9041 120.036 21.1325 119.872 21.3271C119.707 21.5218 119.471 21.6715 119.164 21.7764C118.865 21.8812 118.509 21.9336 118.097 21.9336C117.446 21.9336 116.933 21.8063 116.559 21.5518C116.192 21.2897 115.952 20.9378 115.84 20.4961L115.817 20.4175H112.606L112.617 20.4961C112.699 21.2373 112.961 21.8924 113.403 22.4614C113.845 23.0229 114.455 23.4609 115.233 23.7754C116.02 24.0898 116.967 24.2471 118.075 24.2471ZM130.499 24.2471C131.375 24.2471 132.135 24.1348 132.779 23.9102C133.43 23.6855 133.976 23.3898 134.418 23.0229C134.867 22.6486 135.219 22.2406 135.474 21.7988C135.736 21.3571 135.916 20.9266 136.013 20.5073L136.035 20.3838H133.014L132.992 20.4512C132.917 20.6533 132.775 20.8592 132.565 21.0688C132.356 21.2785 132.086 21.4544 131.757 21.5967C131.427 21.7314 131.03 21.7988 130.566 21.7988C129.99 21.7988 129.492 21.6715 129.073 21.417C128.661 21.1624 128.343 20.7956 128.118 20.3164C127.893 19.8372 127.781 19.2607 127.781 18.5869V17.3066C127.781 16.6104 127.893 16.0189 128.118 15.5322C128.343 15.0456 128.653 14.6787 129.05 14.4316C129.454 14.1771 129.911 14.0498 130.42 14.0498C130.937 14.0498 131.39 14.1733 131.779 14.4204C132.176 14.66 132.483 15.0231 132.7 15.5098C132.917 15.9889 133.026 16.5879 133.026 17.3066V18.5757L134.575 16.644H126.164V18.7104H136.136V17.6997C136.136 16.4718 135.901 15.4012 135.429 14.4878C134.965 13.5744 134.302 12.8669 133.441 12.3652C132.58 11.8561 131.554 11.6016 130.364 11.6016C129.181 11.6016 128.152 11.8636 127.276 12.3877C126.407 12.9043 125.733 13.638 125.254 14.5889C124.775 15.5322 124.535 16.6478 124.535 17.9355V17.9468C124.535 19.242 124.775 20.3613 125.254 21.3047C125.733 22.248 126.418 22.9743 127.309 23.4834C128.2 23.9925 129.263 24.2471 130.499 24.2471Z" fill="black"/>
<path d="M14.9852 28.4376C15.1797 27.9367 15.2724 27.4021 15.258 26.865C15.2877 25.3764 15.6855 23.9184 16.416 22.621C17.1447 21.3258 18.1838 20.2321 19.44 19.438C19.9051 19.1885 20.3148 18.8473 20.6442 18.4349C20.9736 18.0225 21.216 17.5476 21.3566 17.0389C21.4972 16.5301 21.5331 15.9982 21.4622 15.4751C21.3913 14.9521 21.215 14.4489 20.944 13.996C20.582 13.391 20.061 12.895 19.44 12.565C19.084 12.318 18.742 12.052 18.416 11.767L17.599 10.967C16.1019 9.3932 15.2624 7.30708 15.252 5.135C15.2675 4.59777 15.1752 4.06288 14.9806 3.56188C14.786 3.06089 14.493 2.60395 14.119 2.218C13.7466 1.83249 13.3004 1.52595 12.807 1.31668C12.3135 1.10742 11.783 0.999714 11.247 1C10.7113 1.00076 10.1812 1.10894 9.6881 1.31815C9.19497 1.52735 8.7488 1.83334 8.37599 2.218C8.00262 2.60462 7.7101 3.06183 7.51556 3.56287C7.32101 4.06391 7.22835 4.59872 7.24299 5.136C7.25173 5.83344 7.44383 6.5163 7.79999 7.116C8.15493 7.71469 8.66169 8.20902 9.26899 8.549C11.728 10.105 13.439 13.08 13.439 16.006C13.4329 18.1592 12.6094 20.2298 11.135 21.799L9.27499 23.451C8.66799 23.79 8.16099 24.284 7.80499 24.884C7.44799 25.483 7.25699 26.167 7.24799 26.865C7.2327 27.4022 7.32506 27.9371 7.51964 28.438C7.71423 28.939 8.00709 29.396 8.38099 29.782C8.75343 30.1674 9.19967 30.4739 9.69309 30.6832C10.1865 30.8924 10.717 31.0002 11.253 31C11.7888 30.9994 12.3191 30.8913 12.8124 30.682C13.3057 30.4728 13.7521 30.1668 14.125 29.782C14.4982 29.3955 14.7906 28.9384 14.9852 28.4376Z" fill="#4F46E5"/>
<path d="M20.417 7.36C19.976 6.698 19.741 5.919 19.741 5.123C19.7417 4.05673 20.1641 3.034 20.916 2.278C21.5698 1.62024 22.4321 1.2105 23.355 1.11909C24.2779 1.02768 25.2039 1.26028 25.974 1.777C26.6337 2.2199 27.1473 2.84836 27.45 3.583C27.7527 4.31848 27.8318 5.12692 27.6772 5.9071C27.5226 6.68728 27.1413 7.40452 26.581 7.969C26.0224 8.53193 25.3087 8.91563 24.5311 9.07112C23.7534 9.22661 22.9471 9.14685 22.215 8.842C21.4822 8.53685 20.8564 8.02107 20.417 7.36Z" fill="#4F46E5"/>
<path d="M21.522 23.518C22.181 23.076 22.956 22.84 23.748 22.84V22.838C24.2745 22.8386 24.7956 22.9432 25.2816 23.1457C25.7676 23.3482 26.2088 23.6446 26.58 24.018C27.2359 24.6779 27.6439 25.544 27.735 26.47C27.8261 27.3959 27.5948 28.3249 27.08 29.1C26.6406 29.762 26.0144 30.2785 25.281 30.584C24.5489 30.8888 23.7425 30.9686 22.9649 30.8131C22.1873 30.6576 21.4736 30.2739 20.915 29.711C20.3545 29.1464 19.9731 28.429 19.8185 27.6486C19.6639 26.8683 19.743 26.0596 20.046 25.324C20.3488 24.5894 20.8624 23.9609 21.522 23.518Z" fill="#4F46E5"/>
<path d="M33.325 13.758C33.7648 14.4198 33.9998 15.1974 34 15.9931C33.9993 17.0597 33.577 18.0827 32.825 18.839C32.4537 19.2122 32.0125 19.5086 31.5265 19.7111C31.0406 19.9136 30.5194 20.0182 29.993 20.019C29.2001 20.019 28.4252 19.783 27.767 19.341C27.1073 18.8981 26.5937 18.2696 26.291 17.535C25.988 16.7994 25.9089 15.9907 26.0635 15.2104C26.2181 14.43 26.5995 13.7126 27.16 13.148C27.7187 12.5849 28.4325 12.2011 29.2104 12.0456C29.9882 11.8901 30.7948 11.9699 31.527 12.275C32.2599 12.5804 32.8857 13.0966 33.325 13.758Z" fill="#4F46E5"/>
<path d="M2.78099 12.647C3.43999 12.205 4.21399 11.969 5.00699 11.969C5.53334 11.9701 6.0543 12.075 6.54007 12.2776C7.02585 12.4803 7.4669 12.7767 7.83799 13.15C8.49361 13.8097 8.90141 14.6754 8.99251 15.601C9.08361 16.5265 8.85242 17.4552 8.338 18.23C7.89866 18.8914 7.2729 19.4075 6.53999 19.713C5.80763 20.0164 5.00166 20.0953 4.22434 19.9399C3.44702 19.7845 2.73339 19.4017 2.17399 18.84C1.6137 18.2755 1.23239 17.5583 1.07781 16.7781C0.923231 15.9979 1.00226 15.1895 1.30499 14.454C1.60759 13.719 2.12121 13.0902 2.78099 12.647Z" fill="#4F46E5"/>
</svg>
